<svg id="Capa_1" enable-background="new 0 0 511.91 511.91" height="512" viewBox="0 0 511.91 511.91" width="512" xmlns="http://www.w3.org/2000/svg"><g><path d="m90.955 247.24v92.549l-59.91 59.91 111.211 112.211 89.927-91.042c5.618-5.625 8.773-13.25 8.773-21.2v-188.668h-45v105h-30v-135h47.71l27.29-181h-39.272l-99.651 200.316c-7.286 14.569-11.078 30.635-11.078 46.924z" fill="#000"/><path d="m270.955 0 27.29 181h47.71v135h-30v-105h-45v188.668c0 7.95 3.155 15.575 8.773 21.2l89.927 91.042 111.211-112.211-59.91-59.91v-92.521c0-16.307-3.796-32.39-11.089-46.976l-99.639-200.292z" fill="#000"/></g></svg>