<svg id="Capa_1" enable-background="new 0 0 512 512" height="512" viewBox="0 0 512 512" width="512" xmlns="http://www.w3.org/2000/svg"><g><path d="m497 0h-482c-8.284 0-15 6.716-15 15v482c0 8.284 6.716 15 15 15h482c8.284 0 15-6.716 15-15v-482c0-8.284-6.716-15-15-15zm-15 482h-452v-452h452z"/><path d="m121 211c11.111 0 21.52-3.047 30.454-8.333l3.94 3.94c5.857 5.858 15.355 5.858 21.213 0s5.858-15.355 0-21.213l-3.94-3.94c5.286-8.935 8.333-19.343 8.333-30.454v-30c0-33.084-26.916-60-60-60s-60 26.916-60 60v30c0 33.084 26.916 60 60 60zm-30-90c0-16.542 13.458-30 30-30s30 13.458 30 30v30c0 2.684-.36 5.285-1.024 7.763l-3.369-3.369c-5.857-5.858-15.355-5.858-21.213 0s-5.858 15.355 0 21.213l3.369 3.369c-2.478.664-5.079 1.024-7.763 1.024-16.542 0-30-13.458-30-30z"/><path d="m340.733 210.044c7.758 2.908 16.403-1.021 19.312-8.778l7.6-20.267h46.71l7.6 20.267c2.91 7.759 11.556 11.687 19.312 8.778 7.757-2.909 11.688-11.555 8.778-19.312l-45-120c-2.195-5.854-7.792-9.732-14.045-9.732s-11.85 3.879-14.045 9.733l-45 120c-2.909 7.757 1.022 16.402 8.778 19.311zm50.267-91.324 12.105 32.28h-24.21z"/><path d="m217 208c2.698 2.024 5.856 3.001 8.988 3.001 4.561 0 9.065-2.072 12.012-6.001l90-120c4.971-6.627 3.627-16.029-3-21-6.626-4.971-16.03-3.627-21 3l-90 120c-4.971 6.627-3.627 16.029 3 21z"/><path d="m76 331h360c8.284 0 15-6.716 15-15s-6.716-15-15-15h-360c-8.284 0-15 6.716-15 15s6.716 15 15 15z"/><path d="m76 271h150c8.284 0 15-6.716 15-15s-6.716-15-15-15h-150c-8.284 0-15 6.716-15 15s6.716 15 15 15z"/><path d="m76 391h150c8.284 0 15-6.716 15-15s-6.716-15-15-15h-150c-8.284 0-15 6.716-15 15s6.716 15 15 15z"/><path d="m76 451h360c8.284 0 15-6.716 15-15s-6.716-15-15-15h-360c-8.284 0-15 6.716-15 15s6.716 15 15 15z"/></g></svg>